<svg xmlns="http://www.w3.org/2000/svg" fill="#95ff21" viewBox="0 0 512 512"><path d="M386 137a312 312 0 0 0-76.3-23.7c-.5 0-1 0-1.2.6-3.3 5.9-7 13.5-9.5 19.5-29-4.3-57.5-4.3-85.7 0a138 138 0 0 0-10-19.5c-.3-.4-.7-.7-1.2-.6a375.1 375.1 0 0 0-76.5 24.1c-49 73-62 143-55 213 0 .3.2.7.5 1 32 23.6 63 38 93.6 47.3.5 0 1 0 1.3-.4a225 225 0 0 0 19.2-31.2c.3-.6 0-1.4-.7-1.6-10-4-20-8.6-29.3-14-.7-.4-.8-1.5 0-2l5.8-4.5c.3-.3.8-.3 1.2-.2 61.4 28 128 28 188 0 .4-.2.9-.1 1.2.1a130 130 0 0 0 5.8 4.6c.7.5.6 1.6 0 2-9.3 5.5-19 10-29.3 14-.7.3-1 1-.6 1.7 5.6 11 12.1 21.3 19 31 .3.4.8.6 1.3.4a312.4 312.4 0 0 0 93.8-47.3c.3-.2.5-.5.5-1A313.1 313.1 0 0 0 386 136.9ZM194 308c-19 0-34-17-34-38s15-38 34-38 34 17 34 38-15 38-34 38zm125 0c-19 0-34-17-34-38s15-38 34-38 34 17 34 38-15 38-34 38z"/></svg>