<svg xmlns="http://www.w3.org/2000/svg" viewBox="0 0 96 96"><path fill="#94ff20" stroke="null" d="M85 4H11.5A7.2 7.2 0 0 0 4 11v73.5a7.8 7.8 0 0 0 7.6 7.6h73.3a7.4 7.4 0 0 0 7-7.6V11A6.8 6.8 0 0 0 85 4zM31.4 77.4H18.7V38.2h12.8v39.2zm-6-45.2a6.5 6.5 0 0 1-6.8-6.7 6.5 6.5 0 0 1 6.8-6.8 6.5 6.5 0 0 1 6.7 6.8 6.5 6.5 0 0 1-6.8 6.7zm51.9 45.2h-13V55.9c0-5-1.7-8.6-6.3-8.6a6.9 6.9 0 0 0-6.4 4.6 7.9 7.9 0 0 0-.5 3.1v22.4H38.6V38.2h12.6v5.5A12.8 12.8 0 0 1 62.8 37c8.3 0 14.6 5.5 14.6 17.2v23.2z"/></svg>